<?xml version="1.0" encoding="UTF-8" standalone="no"?>
<!-- Created with Inkscape (http://www.inkscape.org/) -->

<svg
   width="28.441086mm"
   height="24.40727mm"
   viewBox="0 0 28.441086 24.40727"
   version="1.1"
   id="svg1"
   xml:space="preserve"
   xmlns="http://www.w3.org/2000/svg"
   xmlns:svg="http://www.w3.org/2000/svg"><defs
     id="defs1" /><g
     id="layer1"
     transform="translate(-10.465094,-25.997386)"><path
       id="rect16"
       style="fill:#595959;fill-opacity:1;stroke-width:0.257825"
       d="m 14.593531,25.997386 h 20.184213 c 2.287154,0 4.128437,1.841283 4.128437,4.128437 v 5.409163 c 0,2.287154 -1.841283,4.128437 -4.128437,4.128437 H 14.593531 c -2.287155,0 -4.128437,-1.841283 -4.128437,-4.128437 v -5.409163 c 0,-2.287154 1.841282,-4.128437 4.128437,-4.128437 z M 12.419125,32.41495 H 36.95215 c 1.082533,0 1.954031,0.871498 1.954031,1.954032 v 3.340409 c 0,1.082534 -0.871498,1.954032 -1.954031,1.954032 H 12.419125 c -1.082533,0 -1.954031,-0.871498 -1.954031,-1.954032 v -3.340409 c 0,-1.082534 0.871498,-1.954032 1.954031,-1.954032 z" /><rect
       style="fill:#82cff8;fill-opacity:1;stroke-width:0.245808"
       id="rect23"
       width="22.781172"
       height="1.9669406"
       x="13.295054"
       y="35.254234"
       rx="0.98347032"
       ry="0.98347032" /><g
       id="g37"
       transform="translate(-88.151113,-9.4561618)"><path
         style="opacity:1;fill:none;fill-opacity:1;stroke:#84d4ff;stroke-width:1.8;stroke-linecap:round;stroke-dasharray:none;stroke-opacity:1"
         d="m 110.79816,51.307671 c -0.89467,1.54962 -0.52271,2.552108 0,3.457477 0.52272,0.90537 1.22871,1.80351 -0.42702,4.195669"
         id="path36" /><path
         style="opacity:1;fill:none;fill-opacity:1;stroke:#84d4ff;stroke-width:1.8;stroke-linecap:round;stroke-dasharray:none;stroke-opacity:1"
         d="m 114.80845,51.307671 c -0.89467,1.54962 -0.52271,2.552108 0,3.457477 0.52272,0.90537 1.22871,1.80351 -0.42702,4.195669"
         id="path37" /></g></g></svg>
